PathFileType	4	(X/Y/Z)	..\data\2014050\dynamic\2014050_C5_05.trc
DataRate	CameraRate	NumFrames	NumMarkers	Units	OrigDataRate	OrigDataStartFrame	OrigNumFrames
100.000000	100.000000	4	52	mm	100.000000	71	142
Frame#	Time	L_IAS			L_IPS			R_IPS			R_IAS			L_FTC			L_FLE			L_FME			L_FAX			L_TTC			L_FAL			L_TAM			L_FCC			L_FM1			L_FM2			L_FM5			R_FTC			R_FLE			R_FME			R_FAX			R_TTC			R_FAL			R_TAM			R_FCC			R_FM1			R_FM2			R_FM5			CV7			TV10			SXS			SJN			L_SIA			L_SRS			L_SAA			L_SAE			L_HLE			L_HME			L_UOA			L_RSP			L_UHE			L_HM2			L_HM5			R_SIA			R_SRS			R_SAA			R_SAE			R_HLE			R_HME			R_UOA			R_RSP			R_UHE			R_HM2			R_HM5			
		X1	Y1	Z1	X2	Y2	Z2	X3	Y3	Z3	X4	Y4	Z4	X5	Y5	Z5	X6	Y6	Z6	X7	Y7	Z7	X8	Y8	Z8	X9	Y9	Z9	X10	Y10	Z10	X11	Y11	Z11	X12	Y12	Z12	X13	Y13	Z13	X14	Y14	Z14	X15	Y15	Z15	X16	Y16	Z16	X17	Y17	Z17	X18	Y18	Z18	X19	Y19	Z19	X20	Y20	Z20	X21	Y21	Z21	X22	Y22	Z22	X23	Y23	Z23	X24	Y24	Z24	X25	Y25	Z25	X26	Y26	Z26	X27	Y27	Z27	X28	Y28	Z28	X29	Y29	Z29	X30	Y30	Z30	X31	Y31	Z31	X32	Y32	Z32	X33	Y33	Z33	X34	Y34	Z34	X35	Y35	Z35	X36	Y36	Z36	X37	Y37	Z37	X38	Y38	Z38	X39	Y39	Z39	X40	Y40	Z40	X41	Y41	Z41	X42	Y42	Z42	X43	Y43	Z43	X44	Y44	Z44	X45	Y45	Z45	X46	Y46	Z46	X47	Y47	Z47	X48	Y48	Z48	X49	Y49	Z49	X50	Y50	Z50	X51	Y51	Z51	X52	Y52	Z52	

72	0.71	941.3298339843752	888.7348632812502	-303.4009094238282	746.2244873046876	906.5623779296877	-239.4058227539063	752.5233154296876	911.2401123046877	-132.2823486328125	952.5193481445315	900.9969482421877	-92.07226562500001	878.6680908203127	796.6063232421877	-384.5628356933595	965.6221923828127	431.1068115234376	-353.6217346191407	1005.167907714844	418.9602050781251	-223.4401550292969	915.3184204101565	394.6209106445314	-350.0227050781251	976.015075683594	351.2869873046876	-312.4742431640626	724.7465820312501	158.7977600097657	-301.7926025390626	757.7624511718751	138.8651275634766	-223.6403350830079	670.1486206054689	133.9779510498047	-237.6297149658204	810.393493652344	40.54881668090821	-266.0792236328126	812.1105957031252	61.96827697753908	-312.2700500488282	762.9387207031251	70.06555175781251	-347.2518310546876	880.6028442382815	797.3193359375002	2.759960174560547	905.826599121094	430.7713012695314	-61.1268882751465	913.361755371094	428.071014404297	-199.5763244628907	875.004089355469	374.7110290527344	-59.04654693603517	942.927673339844	368.7510375976563	-117.1334381103516	834.4396972656252	56.58101654052736	-106.2971878051758	852.0828857421877	75.00119781494142	-195.0535278320313	785.7993164062502	17.03125762939453	-152.788818359375	967.1077880859377	13.08230876922608	-188.0049743652344	975.189636230469	34.72407150268555	-132.7245483398438	935.869812011719	14.93103218078614	-81.20723724365236	834.7322387695315	1382.140747070313	-199.9977111816407	741.9141235351564	1164.366577148438	-197.0034790039063	963.4962158203127	1055.573486328125	-212.1221618652344	941.409118652344	1287.282958984375	-205.7668762207032	741.9675292968751	1206.735595703125	-285.0141906738282	784.4712524414065	1320.08544921875	-294.5712890625001	835.2393798828127	1327.7216796875	-360.8552246093751	882.378601074219	1326.950073242188	-372.4476318359376	871.658630371094	1034.589599609375	-464.0455322265626	825.759216308594	1009.777893066406	-396.4768371582032	841.917419433594	993.5472412109377	-449.0408935546876	996.7169189453127	831.0726318359377	-411.0281066894532	956.9270629882815	822.180603027344	-468.6273803710939	1041.29638671875	764.2557373046876	-411.602264404297	963.2100830078127	755.0191040039064	-467.8488159179689	745.2976684570314	1215.58935546875	-115.5008010864258	795.0974121093752	1317.156372070313	-108.8337860107422	847.3226318359377	1317.8857421875	-43.5299186706543	904.5817871093752	1327.668212890625	-31.69134330749512	861.3651123046877	1017.970397949219	47.99257278442384	808.9497680664065	1005.642150878906	-9.808487892150881	823.3887939453127	989.7109985351565	35.83526992797852	933.756286621094	795.6966552734377	44.36510467529298	867.2523193359377	797.4724731445315	74.51580810546876	954.0593261718752	714.2011108398439	57.1367874145508	861.0017089843752	721.4739379882814	77.89907836914064	
73	0.72	957.6414184570315	890.907165527344	-302.3443908691407	762.3301391601564	908.2634277343752	-240.1681671142579	768.109069824219	912.5916137695315	-133.2617950439453	967.5672607421877	901.3128051757815	-91.73892974853517	895.4075317382815	798.1882934570315	-384.4769287109376	993.9382324218752	434.9503784179689	-351.9180603027344	1032.338134765625	424.7117004394532	-221.5502929687501	945.4570922851565	395.8768920898439	-348.8602905273438	1007.58935546875	355.4951477050782	-310.7326354980469	768.1623535156252	147.8270721435547	-303.5190734863282	801.0335693359377	130.4094696044922	-224.779281616211	713.6148681640626	119.2283172607422	-240.5714874267579	862.3112792968752	37.01925277709962	-265.9934997558594	863.111999511719	58.41603469848634	-312.1719970703126	813.744567871094	61.99036026000978	-347.9203186035157	894.043884277344	797.129089355469	2.136061668395997	909.324157714844	430.5379943847657	-61.55680084228517	916.7010498046877	427.4380798339845	-200.2554779052735	877.4880371093752	374.6882934570313	-59.4852867126465	945.3199462890627	368.0085144042969	-117.5107040405274	834.607604980469	56.66509246826173	-106.6817474365235	852.266784667969	74.74433898925783	-195.5492858886719	785.8317871093752	17.1600456237793	-153.1356353759766	967.2020263671877	12.90563774108887	-188.0353393554688	975.423767089844	34.39032745361329	-132.6910095214844	935.8443603515627	14.63617515563965	-81.22092437744142	850.668640136719	1382.621704101563	-200.4057312011719	757.9395751953126	1164.952026367188	-196.4267578125001	979.655456542969	1056.893310546875	-212.9068756103516	957.1883544921877	1288.336303710938	-206.6921844482422	757.4496459960939	1206.998046875	-283.8563842773438	799.6793212890627	1320.258911132813	-294.1561279296876	849.959899902344	1328.08984375	-360.7412414550782	896.752624511719	1327.204467773438	-373.1201477050782	877.1524658203127	1034.495727539063	-462.9491271972657	829.9219970703127	1012.13427734375	-395.2977600097657	845.3612060546877	995.4543457031252	-447.9093627929689	989.512878417969	823.2084960937502	-412.0251770019532	949.6978149414065	817.8257446289065	-470.2500610351564	1029.253051757813	753.3875122070314	-412.9707031250001	951.6416015625002	750.3211059570314	-470.3901367187501	761.9965820312501	1216.723510742188	-114.5548324584961	811.385681152344	1318.13818359375	-108.7067413330078	864.0943603515627	1319.096923828125	-43.78972244262696	920.7417602539065	1327.876098632813	-34.09523391723634	888.2250976562502	1018.877685546875	48.57627868652345	836.3823242187502	1004.349548339844	-9.618147850036623	851.6287231445315	988.6383056640627	36.20498275756837	972.1776123046877	800.413269042969	44.35630035400391	905.081237792969	798.8564453125002	74.32315063476564	996.6992187500002	720.4245605468751	57.06335449218751	903.5460205078127	722.1885375976564	77.21238708496095	
74	0.73	974.0289306640627	892.3840332031252	-301.2897338867188	778.5186157226565	909.3919677734377	-241.2073974609376	783.756530761719	913.4393310546877	-134.3986358642578	982.6827392578127	901.1716308593752	-91.54117584228517	912.414733886719	799.1517333984377	-384.5082092285157	1021.730285644531	438.3662109375001	-350.2124938964844	1058.609252929688	430.0303955078126	-219.7017059326172	975.4436035156252	396.454803466797	-347.8574523925782	1038.656494140625	359.5069580078126	-308.7529296875001	812.8159179687502	136.7458190917969	-305.2722778320313	845.2828369140627	121.9731597900391	-225.8730773925782	758.7517700195314	104.5281219482422	-243.5267639160157	914.677673339844	34.01692199707032	-265.5152893066407	914.5936279296877	55.21511077880861	-311.7627258300782	865.377624511719	54.3992156982422	-348.3456115722657	908.0113525390627	796.6876220703127	1.59432590007782	912.9113769531252	430.2648010253907	-61.95968246459962	920.0924072265627	426.8453369140626	-200.8911285400391	880.1423950195315	374.6630249023438	-59.86315155029298	947.7888183593752	367.2319335937501	-117.9075393676758	834.8135986328127	56.78493499755861	-107.0960311889649	852.554626464844	74.52950286865236	-196.0736236572266	785.9470214843752	17.3628215789795	-153.5726776123047	967.3201904296877	12.68841552734375	-188.0671539306641	975.6931152343752	33.99118423461915	-132.6433715820313	935.8000488281252	14.31977844238282	-81.22702789306642	866.6199951171877	1382.65576171875	-200.8148803710938	774.134216308594	1165.043212890625	-195.9027252197266	995.8843383789065	1057.796630859375	-213.5704956054688	973.0371704101565	1288.993774414063	-207.6163177490235	772.9548339843752	1206.82958984375	-282.7141113281251	814.952331542969	1319.985473632813	-293.7317810058594	864.7507324218752	1328.014526367188	-360.5969238281251	911.2058105468752	1327.009521484375	-373.7439880371094	882.6878051757815	1034.309204101563	-461.7167053222657	834.1936035156252	1014.470703125	-394.0046691894532	848.9194946289065	997.3981933593752	-446.6721496582032	981.781188964844	816.0751953125002	-412.9580688476564	942.2059326171877	814.189636230469	-471.7605285644532	1016.402099609375	743.5241088867189	-414.2677307128907	939.7534179687502	746.6423950195314	-472.8480834960939	778.8564453125002	1217.325439453125	-113.5967636108399	827.7593383789065	1318.621337890625	-108.5638885498047	880.893737792969	1319.8857421875	-43.9908790588379	936.9873046875002	1327.551147460938	-36.58514404296876	915.0180664062502	1019.76953125	49.10886001586915	864.0368652343752	1003.112915039063	-9.659637451171877	879.9439086914065	987.5986328125002	36.44455337524415	1010.4677734375	805.7436523437502	44.00410842895509	943.0129394531252	800.7891845703127	73.83923339843751	1039.167846679688	727.5288085937501	56.55865478515626	946.1919555664065	723.6966552734376	76.11011505126955	
75	0.74	990.5049438476565	893.0745239257815	-300.2913513183594	794.7798461914065	909.8864746093752	-242.493148803711	799.4412231445315	913.7210693359377	-135.6556549072266	997.8548583984377	900.522399902344	-91.4345169067383	929.7246093750002	799.475280761719	-384.6558227539064	1048.92431640625	441.2951660156251	-348.5569458007813	1083.933349609375	434.7971801757814	-217.9280700683594	1005.226806640625	396.3792724609376	-347.0446166992188	1069.136352539063	363.2727050781251	-306.5778808593751	858.6472778320315	125.89599609375	-307.0191650390626	890.4467773437502	113.8184890747071	-226.9123687744141	805.5155029296877	90.19227600097658	-246.4374694824219	967.3342285156252	31.78216171264649	-264.7257690429688	966.429626464844	52.66663360595705	-311.1103515625001	917.7441406250002	47.66196060180665	-348.5666503906251	922.4378662109377	795.9526367187502	1.173177599906922	916.635192871094	429.9408569335939	-62.3314666748047	923.5612792968752	426.2998657226564	-201.4818267822266	882.983093261719	374.6330871582032	-60.18861389160158	950.3848876953127	366.4040222167969	-118.3120040893555	835.0549316406252	56.95766067504884	-107.5545654296875	852.960632324219	74.37842559814455	-196.6352996826172	786.1553955078127	17.66211891174317	-154.1194763183594	967.4636230468752	12.46440601348877	-188.1037750244141	975.9862060546877	33.56623458862305	-132.586181640625	935.7359008789065	14.02363586425782	-81.23339080810548	882.6041259765627	1382.235107421875	-201.2305450439454	790.477722167969	1164.641845703125	-195.4427490234376	1012.183044433594	1058.224487304688	-214.126937866211	988.967468261719	1289.208740234375	-208.5279998779297	788.486999511719	1206.206176757813	-281.6003723144532	830.3130493164065	1319.2451171875	-293.3149719238282	879.631774902344	1327.467041015625	-360.4434204101563	925.760925292969	1326.335693359375	-374.3468017578126	888.2556152343752	1033.98779296875	-460.3642883300782	838.6467285156252	1016.718017578125	-392.573944091797	852.6209106445315	999.3276367187502	-445.311004638672	973.6650390625002	809.7198486328127	-413.8106994628907	934.5786743164065	811.2711181640627	-473.1184082031251	1002.926879882813	734.7442016601564	-415.481414794922	927.7164306640627	743.9979858398439	-475.1814575195314	795.8582763671877	1217.376953125	-112.6399307250977	844.2235107421877	1318.594604492188	-108.4136276245117	897.7242431640627	1320.205444335938	-44.14677047729493	953.3806762695315	1326.7958984375	-39.01231002807618	941.7142333984377	1020.588134765625	49.60023498535158	891.8741455078127	1001.869873046875	-9.892037391662599	908.2932128906252	986.550231933594	36.58823394775391	1048.523681640625	811.6386718750002	43.31561660766602	980.9786376953127	803.2211914062502	73.07331848144533	1081.357666015625	735.4364624023439	55.63070297241212	988.8221435546877	725.9656372070314	74.61985015869142	
